<svg width="270" height="30" viewBox="0 0 270 30" fill="none" xmlns="http://www.w3.org/2000/svg">
<path d="M71.5664 18.1953C71.5664 18.8672 71.4414 19.4961 71.1914 20.082C70.9414 20.6602 70.5977 21.168 70.1602 21.6055C69.7305 22.0352 69.2227 22.375 68.6367 22.625C68.0586 22.875 67.4375 23 66.7734 23H52.1719V20.5977H66.7734C67.1094 20.5977 67.4219 20.5352 67.7109 20.4102C68 20.2852 68.25 20.1133 68.4609 19.8945C68.6797 19.6758 68.8516 19.4219 68.9766 19.1328C69.1016 18.8359 69.1641 18.5234 69.1641 18.1953C69.1641 17.8672 69.1016 17.5586 68.9766 17.2695C68.8516 16.9805 68.6797 16.7266 68.4609 16.5078C68.25 16.2891 68 16.1172 67.7109 15.9922C67.4219 15.8672 67.1094 15.8047 66.7734 15.8047H56.9766C56.3203 15.8047 55.6992 15.6797 55.1133 15.4297C54.5273 15.1797 54.0156 14.8398 53.5781 14.4102C53.1484 13.9727 52.8047 13.4609 52.5469 12.875C52.2969 12.2891 52.1719 11.6641 52.1719 11C52.1719 10.3438 52.2969 9.72266 52.5469 9.13672C52.8047 8.55078 53.1484 8.04297 53.5781 7.61328C54.0156 7.17578 54.5273 6.83203 55.1133 6.58203C55.6992 6.32422 56.3203 6.19531 56.9766 6.19531H70.3711V8.59766H56.9766C56.6484 8.59766 56.3359 8.66016 56.0391 8.78516C55.75 8.91016 55.4961 9.08203 55.2773 9.30078C55.0586 9.51953 54.8867 9.77734 54.7617 10.0742C54.6367 10.3633 54.5742 10.6719 54.5742 11C54.5742 11.3281 54.6367 11.6406 54.7617 11.9375C54.8867 12.2266 55.0586 12.4805 55.2773 12.6992C55.4961 12.918 55.75 13.0898 56.0391 13.2148C56.3359 13.3398 56.6484 13.4023 56.9766 13.4023H66.7734C67.4375 13.4023 68.0586 13.5312 68.6367 13.7891C69.2227 14.0391 69.7305 14.3828 70.1602 14.8203C70.5977 15.25 70.9414 15.7578 71.1914 16.3438C71.4414 16.9219 71.5664 17.5391 71.5664 18.1953ZM91.9805 23H81.1641C80 23 78.9414 22.7812 77.9883 22.3438C77.0352 21.9062 76.2188 21.3086 75.5391 20.5508C74.8672 19.793 74.3477 18.9023 73.9805 17.8789C73.6133 16.8555 73.4297 15.7617 73.4297 14.5977C73.4297 13.4414 73.6133 12.3555 73.9805 11.3398C74.3477 10.3164 74.8672 9.42578 75.5391 8.66797C76.2188 7.90234 77.0352 7.30078 77.9883 6.86328C78.9414 6.41797 80 6.19531 81.1641 6.19531H91.9805V8.59766H81.1641C80.3359 8.59766 79.5898 8.75781 78.9258 9.07812C78.2695 9.39062 77.7109 9.82031 77.25 10.3672C76.7969 10.9062 76.4453 11.5391 76.1953 12.2656C75.9531 12.9922 75.832 13.7695 75.832 14.5977C75.832 15.4258 75.9531 16.207 76.1953 16.9414C76.4453 17.668 76.7969 18.3047 77.25 18.8516C77.7109 19.3906 78.2695 19.8164 78.9258 20.1289C79.5898 20.4414 80.3359 20.5977 81.1641 20.5977H91.9805V23ZM112.641 23H110.238V15.8047H98.4961V13.4023H110.238V6.19531H112.641V23ZM97.3008 23H94.8984V6.19531H97.3008V23ZM134.051 23H116.672V6.19531H134.051V8.59766H119.074V20.5977H134.051V23ZM132.012 15.8047H120.27V13.4023H132.012V15.8047ZM149.133 23H146.73V14.5977C146.73 13.7695 146.574 12.9922 146.262 12.2656C145.949 11.5391 145.52 10.9062 144.973 10.3672C144.434 9.82031 143.797 9.39062 143.062 9.07812C142.336 8.75781 141.559 8.59766 140.73 8.59766H139.441V23H137.039V6.19531H140.73C141.496 6.19531 142.23 6.29688 142.934 6.5C143.645 6.69531 144.309 6.97266 144.926 7.33203C145.543 7.69141 146.105 8.12109 146.613 8.62109C147.121 9.12109 147.562 9.67578 147.938 10.2852C148.305 9.67578 148.742 9.12109 149.25 8.62109C149.758 8.12109 150.32 7.69141 150.938 7.33203C151.555 6.97266 152.215 6.69531 152.918 6.5C153.629 6.29688 154.367 6.19531 155.133 6.19531H158.836V23H156.434V8.59766H155.133C154.305 8.59766 153.527 8.75781 152.801 9.07812C152.074 9.39062 151.438 9.82031 150.891 10.3672C150.352 10.9062 149.922 11.5391 149.602 12.2656C149.289 12.9922 149.133 13.7695 149.133 14.5977V23ZM180.246 23H162.867V6.19531H180.246V8.59766H165.27V20.5977H180.246V23ZM178.207 15.8047H166.465V13.4023H178.207V15.8047ZM192.352 23H189.949V8.59766H181.453V6.19531H200.848V8.59766H192.352V23ZM205.512 23H203.109V6.19531H205.512V23ZM227.145 23H216.328C215.164 23 214.105 22.7812 213.152 22.3438C212.199 21.9062 211.383 21.3086 210.703 20.5508C210.031 19.793 209.512 18.9023 209.145 17.8789C208.777 16.8555 208.594 15.7617 208.594 14.5977C208.594 13.4414 208.777 12.3555 209.145 11.3398C209.512 10.3164 210.031 9.42578 210.703 8.66797C211.383 7.90234 212.199 7.30078 213.152 6.86328C214.105 6.41797 215.164 6.19531 216.328 6.19531H227.145V8.59766H216.328C215.5 8.59766 214.754 8.75781 214.09 9.07812C213.434 9.39062 212.875 9.82031 212.414 10.3672C211.961 10.9062 211.609 11.5391 211.359 12.2656C211.117 12.9922 210.996 13.7695 210.996 14.5977C210.996 15.4258 211.117 16.207 211.359 16.9414C211.609 17.668 211.961 18.3047 212.414 18.8516C212.875 19.3906 213.434 19.8164 214.09 20.1289C214.754 20.4414 215.5 20.5977 216.328 20.5977H227.145V23ZM249.164 23H246.762V18.1953H233.355V15.8047H246.762V8.59766H238.148C237.328 8.59766 236.555 8.75781 235.828 9.07812C235.102 9.39062 234.469 9.82031 233.93 10.3672C233.391 10.9062 232.961 11.5391 232.641 12.2656C232.328 12.9922 232.172 13.7695 232.172 14.5977V23H229.77V14.5977C229.77 13.8242 229.867 13.082 230.062 12.3711C230.266 11.6523 230.547 10.9844 230.906 10.3672C231.273 9.74219 231.711 9.17578 232.219 8.66797C232.734 8.15234 233.301 7.71094 233.918 7.34375C234.543 6.97656 235.211 6.69531 235.922 6.5C236.633 6.29688 237.375 6.19531 238.148 6.19531H249.164V23ZM269.25 23H253.195V6.19531H255.598V20.5977H269.25V23Z" fill="#3D7EFF"/>
<path fill-rule="evenodd" clip-rule="evenodd" d="M9.7967 0C11.9546 3.77302e-07 13.7197 1.71264 13.8525 3.87586L13.8605 3.87931L13.8535 3.89271C13.8581 3.97384 13.8605 4.05561 13.8605 4.13793C13.8605 5.6579 13.0556 6.98647 11.8562 7.70585L8.42485 14.2571C8.01406 15.0414 8.02759 15.9855 8.46068 16.7572L11.3876 21.9728C11.8398 22.7786 12.6814 23.2759 13.5928 23.2759H19.0148C19.913 23.2759 20.7445 22.7928 21.2014 22.0053L25.0519 15.3702C25.0413 15.2483 25.0359 15.1248 25.0359 15C25.0359 12.7147 26.8553 10.8621 29.0997 10.8621C31.344 10.8621 33.1634 12.7147 33.1634 15C33.1634 16.6427 32.2234 18.0618 30.8611 18.7301L25.7501 28.6183C25.3109 29.468 24.4455 30 23.5025 30H9.23875C8.3273 30 7.48573 29.5027 7.03353 28.6969L0.334644 16.76C-0.0992779 15.9867 -0.111979 15.0406 0.301025 14.2556L5.73843 3.92056C5.84945 1.73628 7.62394 -3.79897e-07 9.7967 0ZM30.6236 15C30.6236 15.857 29.9413 16.5517 29.0997 16.5517C28.258 16.5517 27.5757 15.857 27.5757 15C27.5757 14.143 28.258 13.4483 29.0997 13.4483C29.9413 13.4483 30.6236 14.143 30.6236 15ZM9.7967 5.68965C10.6383 5.68965 11.3206 4.99492 11.3206 4.13793C11.3206 3.28094 10.6383 2.58621 9.7967 2.58621C8.95506 2.58621 8.27278 3.28094 8.27278 4.13793C8.27278 4.99492 8.95506 5.68965 9.7967 5.68965Z" fill="#3D7EFF"/>
<path fill-rule="evenodd" clip-rule="evenodd" d="M35.7033 30C33.5454 30 31.7803 28.2874 31.6475 26.1241L31.6395 26.1207L31.6465 26.1073C31.6419 26.0262 31.6395 25.9444 31.6395 25.8621C31.6395 24.3421 32.4444 23.0135 33.6438 22.2941L37.0752 15.7429C37.4859 14.9586 37.4724 14.0145 37.0393 13.2428L34.1124 8.02723C33.6602 7.22143 32.8187 6.72414 31.9072 6.72414L26.4852 6.72414C25.587 6.72414 24.7555 7.20724 24.2986 7.99467L20.4481 14.6298C20.4587 14.7517 20.4641 14.8752 20.4641 15C20.4641 17.2853 18.6447 19.1379 16.4003 19.1379C14.156 19.1379 12.3366 17.2853 12.3366 15C12.3366 13.3573 13.2766 11.9382 14.6389 11.2699L19.75 1.38169C20.1892 0.531988 21.0545 7.21809e-07 21.9975 9.70632e-07L36.2613 4.73431e-06C37.1727 4.97481e-06 38.0143 0.497296 38.4665 1.30309L45.1654 13.24C45.5993 14.0133 45.612 14.9594 45.199 15.7444L39.7616 26.0794C39.6506 28.2637 37.8761 30 35.7033 30ZM14.8764 15C14.8764 14.143 15.5587 13.4483 16.4003 13.4483C17.242 13.4483 17.9243 14.143 17.9243 15C17.9243 15.857 17.242 16.5517 16.4003 16.5517C15.5587 16.5517 14.8764 15.857 14.8764 15ZM35.7033 24.3103C34.8617 24.3103 34.1794 25.0051 34.1794 25.8621C34.1794 26.7191 34.8617 27.4138 35.7033 27.4138C36.5449 27.4138 37.2272 26.7191 37.2272 25.8621C37.2272 25.0051 36.5449 24.3103 35.7033 24.3103Z" fill="#3D7EFF"/>
</svg>
